# xmcd CD database file
#
# Track frame offsets:
#	150
#	23857
#	38104
#	53176
#	70728
#	85895
#	97244
#	110306
#	128901
#	134608
#	149602
#
# Disc length: 2291 seconds
#
# Revision: 23
# Processed by: cddbd v1.5.1PL0 Copyright (c) Steve Scherf et al.
# Submitted via: CDex 1.51
#
DISCID=a108f10b
DTITLE=矢井田瞳 - daiya-monde
DYEAR=2000
DGENRE=Pop
TTITLE0=How? <U.K.mix>
TTITLE1=Everything Is In Our Mind
TTITLE2=B'coz I Love You
TTITLE3=Your Kiss
TTITLE4=My Sweet Darlin'
TTITLE5=Girl's Talk
TTITLE6=もしものうた
TTITLE7=ねえ
TTITLE8=大阪ジェンヌ
TTITLE9=I like <U.K.mix>
TTITLE10=Nothing
EXTD=YEAR: 2000
EXTT0=
EXTT1=
EXTT2=
EXTT3=
EXTT4=
EXTT5=
EXTT6=
EXTT7=
EXTT8=
EXTT9=
EXTT10=
PLAYORDER=
